<svg xmlns="http://www.w3.org/2000/svg" xmlns:xlink="http://www.w3.org/1999/xlink" fill="none" version="1.1" width="15" height="15" viewBox="0 0 15 15"><clipPath id="master_svg0_149_04632"><rect x="0" y="0" width="15" height="15" rx="0"/></clipPath><g clip-path="url(#master_svg0_149_04632)" style="mix-blend-mode:passthrough"><g><g style="mix-blend-mode:passthrough"><path d="M5.625,1.25C5.89402,1.25,6.13286,1.422144,6.21793,1.677358C6.21793,1.677358,9.375,11.14856,9.375,11.14856C9.375,11.14856,10.6571,7.30236,10.6571,7.30236C10.7421,7.04714,10.981,6.875,11.25,6.875C11.25,6.875,13.75,6.875,13.75,6.875C14.0952,6.875,14.375,7.15482,14.375,7.5C14.375,7.84519,14.0952,8.125,13.75,8.125C13.75,8.125,11.7005,8.125,11.7005,8.125C11.7005,8.125,9.96794,13.3226,9.96794,13.3226C9.88288,13.5779,9.644,13.75,9.375,13.75C9.106,13.75,8.86712,13.5779,8.78206,13.3226C8.78206,13.3226,5.625,3.85143,5.625,3.85143C5.625,3.85143,4.34293,7.69763,4.34293,7.69763C4.25786,7.95288,4.019019999999999,8.125,3.75,8.125C3.75,8.125,1.25,8.125,1.25,8.125C0.904822,8.125,0.625,7.84519,0.625,7.5C0.625,7.15482,0.904822,6.875,1.25,6.875C1.25,6.875,3.29953,6.875,3.29953,6.875C3.29953,6.875,5.03207,1.677358,5.03207,1.677358C5.11714,1.422144,5.35598,1.25,5.625,1.25C5.625,1.25,5.625,1.25,5.625,1.25Z" fill-rule="evenodd" fill="#000000" fill-opacity="1"/></g></g></g></svg>