<svg xmlns="http://www.w3.org/2000/svg" xmlns:xlink="http://www.w3.org/1999/xlink" fill="none" version="1.1" width="13" height="13" viewBox="0 0 13 13"><clipPath id="master_svg0_12_6084"><rect x="0" y="0" width="13" height="13" rx="0"/></clipPath><g clip-path="url(#master_svg0_12_6084)" style="mix-blend-mode:passthrough"><g><g style="mix-blend-mode:passthrough"><path d="M6.49983390625,1.6249559765625C3.80745390625,1.6249559765625,1.62483390625,3.8075759765625,1.62483390625,6.4999559765625C1.62483390625,9.1923659765625,3.80745390625,11.3749259765625,6.49983390625,11.3749259765625C9.19224390625,11.3749259765625,11.37480390625,9.1923659765625,11.37480390625,6.4999559765625C11.37480390625,3.8075759765625,9.19224390625,1.6249559765625,6.49983390625,1.6249559765625C6.49983390625,1.6249559765625,6.49983390625,1.6249559765625,6.49983390625,1.6249559765625ZM0.54150390625,6.4999559765625C0.54150390625,3.2092659765625,3.20914390625,0.5416259765625,6.49983390625,0.5416259765625C9.79051390625,0.5416259765625,12.45820390625,3.2092659765625,12.45820390625,6.4999559765625C12.45820390625,9.7906359765625,9.79051390625,12.4583259765625,6.49983390625,12.4583259765625C3.20914390625,12.4583259765625,0.54150390625,9.7906359765625,0.54150390625,6.4999559765625C0.54150390625,6.4999559765625,0.54150390625,6.4999559765625,0.54150390625,6.4999559765625ZM6.49983390625,3.7916259765625C6.79900390625,3.7916259765625,7.04150390625,4.034135976562499,7.04150390625,4.3332959765625C7.04150390625,4.3332959765625,7.04150390625,6.4999559765625,7.04150390625,6.4999559765625C7.04150390625,6.7991259765625,6.79900390625,7.0416259765625,6.49983390625,7.0416259765625C6.20067390625,7.0416259765625,5.95817390625,6.7991259765625,5.95817390625,6.4999559765625C5.95817390625,6.4999559765625,5.95817390625,4.3332959765625,5.95817390625,4.3332959765625C5.95817390625,4.034135976562499,6.20067390625,3.7916259765625,6.49983390625,3.7916259765625C6.49983390625,3.7916259765625,6.49983390625,3.7916259765625,6.49983390625,3.7916259765625ZM5.95817390625,8.6666259765625C5.95817390625,8.3674659765625,6.20067390625,8.1249559765625,6.49983390625,8.1249559765625C6.49983390625,8.1249559765625,6.50525390625,8.1249559765625,6.50525390625,8.1249559765625C6.80441390625,8.1249559765625,7.04692390625,8.3674659765625,7.04692390625,8.6666259765625C7.04692390625,8.9657859765625,6.80441390625,9.2082959765625,6.50525390625,9.2082959765625C6.50525390625,9.2082959765625,6.49983390625,9.2082959765625,6.49983390625,9.2082959765625C6.20067390625,9.2082959765625,5.95817390625,8.9657859765625,5.95817390625,8.6666259765625C5.95817390625,8.6666259765625,5.95817390625,8.6666259765625,5.95817390625,8.6666259765625Z" fill-rule="evenodd" fill="#000000" fill-opacity="1"/></g></g></g></svg>