<svg xmlns="http://www.w3.org/2000/svg" xmlns:xlink="http://www.w3.org/1999/xlink" fill="none" version="1.1" width="15" height="15" viewBox="0 0 15 15"><clipPath id="master_svg0_149_04629"><rect x="0" y="0" width="15" height="15" rx="0"/></clipPath><g clip-path="url(#master_svg0_149_04629)" style="mix-blend-mode:passthrough"><g><g style="mix-blend-mode:passthrough"><path d="M7.5,1.25C5.428929999999999,1.25,3.75,2.92893,3.75,5C3.75,7.07106,5.428929999999999,8.75,7.5,8.75C8.2274,8.75,8.90644,8.54288,9.48131,8.18444C9.51237,8.15987,9.54594,8.13812,9.581620000000001,8.11969C10.58756,7.44712,11.25,6.30094,11.25,5C11.25,2.92893,9.57106,1.25,7.5,1.25C7.5,1.25,7.5,1.25,7.5,1.25ZM10.5385,8.97112C11.731,8.05731,12.5,6.61844,12.5,5C12.5,2.23857,10.26144,0,7.5,0C4.73857,0,2.5,2.23857,2.5,5C2.5,6.61875,3.269269,8.05787,4.46219,8.97169C4.46219,8.97169,3.75544,14.2927,3.75544,14.2927C3.72384,14.5306,3.8312600000000003,14.7656,4.03185,14.8974C4.23244,15.0291,4.49076,15.0344,4.69656,14.9109C4.69656,14.9109,7.5,13.2289,7.5,13.2289C7.5,13.2289,10.30344,14.9109,10.30344,14.9109C10.50925,15.0344,10.7675,15.0291,10.96812,14.8974C11.16869,14.7656,11.27612,14.5307,11.24456,14.2928C11.24456,14.2928,10.5385,8.97112,10.5385,8.97112C10.5385,8.97112,10.5385,8.97112,10.5385,8.97112ZM9.36631,9.64006C8.789629999999999,9.87225,8.159749999999999,10,7.5,10C6.84051,10,6.21083,9.87231,5.63436,9.64031C5.63436,9.64031,5.16528,13.1719,5.16528,13.1719C5.16528,13.1719,7.17844,11.9641,7.17844,11.9641C7.37637,11.8453,7.62363,11.8453,7.82156,11.9641C7.82156,11.9641,9.83494,13.1721,9.83494,13.1721C9.83494,13.1721,9.36631,9.64006,9.36631,9.64006C9.36631,9.64006,9.36631,9.64006,9.36631,9.64006Z" fill-rule="evenodd" fill="#000000" fill-opacity="1"/></g></g></g></svg>