<svg xmlns="http://www.w3.org/2000/svg" xmlns:xlink="http://www.w3.org/1999/xlink" fill="none" version="1.1" width="30" height="30" viewBox="0 0 30 30"><clipPath id="master_svg0_3132_6684"><rect x="0" y="0" width="30" height="30" rx="0"/></clipPath><g clip-path="url(#master_svg0_3132_6684)" style="mix-blend-mode:passthrough"><g><g style="mix-blend-mode:passthrough"><path d="M15,2.5C10.857859999999999,2.5,7.5,5.85786,7.5,10C7.5,14.1421,10.857859999999999,17.5,15,17.5C16.4548,17.5,17.8129,17.0858,18.962600000000002,16.3689C19.0247,16.3197,19.091900000000003,16.2762,19.1632,16.2394C21.1751,14.8942,22.5,12.6019,22.5,10C22.5,5.85786,19.1421,2.5,15,2.5C15,2.5,15,2.5,15,2.5ZM21.077,17.9422C23.462,16.1146,25,13.2369,25,10C25,4.47715,20.5229,0,15,0C9.47715,0,5,4.47715,5,10C5,13.2375,6.53854,16.1157,8.92437,17.9434C8.92437,17.9434,7.51089,28.5854,7.51089,28.5854C7.44769,29.0613,7.662520000000001,29.5312,8.0637,29.7948C8.46487,30.0583,8.98152,30.0689,9.39313,29.8219C9.39313,29.8219,15,26.4578,15,26.4578C15,26.4578,20.6069,29.8219,20.6069,29.8219C21.0185,30.0688,21.535,30.0583,21.9362,29.7948C22.3374,29.5312,22.5522,29.0614,22.4891,28.5856C22.4891,28.5856,21.077,17.9422,21.077,17.9422C21.077,17.9422,21.077,17.9422,21.077,17.9422ZM18.732599999999998,19.2801C17.5793,19.7445,16.319499999999998,20,15,20C13.68101,20,12.42166,19.7446,11.268709999999999,19.2806C11.268709999999999,19.2806,10.330549999999999,26.3439,10.330549999999999,26.3439C10.330549999999999,26.3439,14.35687,23.9281,14.35687,23.9281C14.75274,23.6906,15.2473,23.6906,15.6431,23.9281C15.6431,23.9281,19.6699,26.3441,19.6699,26.3441C19.6699,26.3441,18.732599999999998,19.2801,18.732599999999998,19.2801C18.732599999999998,19.2801,18.732599999999998,19.2801,18.732599999999998,19.2801Z" fill-rule="evenodd" fill="#000000" fill-opacity="1"/></g></g></g></svg>