<svg xmlns="http://www.w3.org/2000/svg" xmlns:xlink="http://www.w3.org/1999/xlink" fill="none" version="1.1" width="15" height="15" viewBox="0 0 15 15"><clipPath id="master_svg0_149_04635"><rect x="0" y="0" width="15" height="15" rx="0"/></clipPath><g clip-path="url(#master_svg0_149_04635)" style="mix-blend-mode:passthrough"><g><g style="mix-blend-mode:passthrough"><path d="M9.78938,2.35836892578125C8.68137,1.86468892578125,7.4435,1.74237892578125,6.26036,2.00969892578125C5.07719,2.27701892578125,4.0121400000000005,2.91963892578125,3.22403,3.84171892578125C2.43593,4.76380892578125,1.96701,5.91593892578125,1.88719,7.12626892578125C1.80738,8.336648925781251,2.12096,9.54039892578125,2.78117,10.55795892578125C3.44137,11.57549892578125,4.41282,12.35249892578125,5.55064,12.77279892578125C6.68846,13.19319892578125,7.93169,13.23449892578125,9.09488,12.89059892578125C10.25813,12.54669892578125,11.279,11.83589892578125,12.0053,10.86439892578125C12.7316,9.89289892578125,13.1243,8.71258892578125,13.125,7.49964892578125C13.125,7.49964892578125,13.125,6.92495892578125,13.125,6.92495892578125C13.125,6.57979892578125,13.4048,6.29997892578125,13.75,6.29997892578125C14.0952,6.29997892578125,14.375,6.57979892578125,14.375,6.92495892578125C14.375,6.92495892578125,14.375,7.49995892578125,14.375,7.49995892578125C14.3741,8.98251892578125,13.8941,10.42539892578125,13.0064,11.61279892578125C12.1187,12.80029892578125,10.871,13.66889892578125,9.44931,14.08929892578125C8.02763,14.50959892578125,6.50812,14.45909892578125,5.11745,13.94529892578125C3.72678,13.43159892578125,2.53945,12.48199892578125,1.73254,11.23829892578125C0.925621,9.99458892578125,0.5423563,8.523398925781251,0.6399028,7.04402892578125C0.737449,5.56472892578125,1.310581,4.156558925781249,2.2738199999999997,3.02956892578125C3.23706,1.90258892578125,4.5387900000000005,1.11715992578125,5.98488,0.79043492578125C7.431,0.46370992578125003,8.94394,0.61319067578125,10.29813,1.21658492578125C10.61344,1.35707392578125,10.7551,1.72655892578125,10.61462,2.0418489257812498C10.47419,2.35714892578125,10.10469,2.49885892578125,9.78938,2.35836892578125C9.78938,2.35836892578125,9.78938,2.35836892578125,9.78938,2.35836892578125ZM14.1918,2.05780892578125C14.4359,2.30176892578125,14.4361,2.69749892578125,14.1922,2.94169892578125C14.1922,2.94169892578125,7.94219,9.19795892578125,7.94219,9.19795892578125C7.825,9.31527892578125,7.666,9.38120892578125,7.50019,9.38120892578125C7.33437,9.38127892578125,7.17531,9.31539892578125,7.05806,9.19814892578125C7.05806,9.19814892578125,5.18306,7.32314892578125,5.18306,7.32314892578125C4.93899,7.07908892578125,4.93899,6.68335892578125,5.18306,6.43928892578125C5.42714,6.19520892578125,5.82287,6.19520892578125,6.06694,6.43928892578125C6.06694,6.43928892578125,7.49981,7.87214892578125,7.49981,7.87214892578125C7.49981,7.87214892578125,13.3078,2.0582589257812502,13.3078,2.0582589257812502C13.5518,1.81405892578125,13.9475,1.81385892578125,14.1918,2.05780892578125C14.1918,2.05780892578125,14.1918,2.05780892578125,14.1918,2.05780892578125Z" fill-rule="evenodd" fill="#000000" fill-opacity="1"/></g></g></g></svg>