<svg class="icon" viewBox="0 0 1024 1024" xmlns="http://www.w3.org/2000/svg" width="200" height="200"><path d="M118.624 489.376a32 32 0 0 0-45.248 45.248l45.248-45.248zM512 928l-22.624 22.624a32 32 0 0 0 45.248 0L512 928zm438.624-393.376a32 32 0 0 0-45.248-45.248l45.248 45.248zm-832-461.248a32 32 0 1 0-45.248 45.248l45.248-45.248zM512 512l-22.624 22.624a32 32 0 0 0 45.248 0L512 512zm438.624-393.376a32 32 0 0 0-45.248-45.248l45.248 45.248zm-877.248 416 416 416 45.248-45.248-416-416-45.248 45.248zm461.248 416 416-416-45.248-45.248-416 416 45.248 45.248zm-461.248-832 416 416 45.248-45.248-416-416-45.248 45.248zm461.248 416 416-416-45.248-45.248-416 416 45.248 45.248z" fill='#4493D5'/></svg>