<svg xmlns="http://www.w3.org/2000/svg" xmlns:xlink="http://www.w3.org/1999/xlink" fill="none" version="1.1" width="30" height="30" viewBox="0 0 30 30"><clipPath id="master_svg0_3132_4250"><rect x="0" y="0" width="30" height="30" rx="0"/></clipPath><g clip-path="url(#master_svg0_3132_4250)" style="mix-blend-mode:passthrough"><g><g style="mix-blend-mode:passthrough"><path d="M15,0C15.69035,0,16.25,0.559644,16.25,1.25C16.25,1.25,16.25,5,16.25,5C16.25,5,21.25,5,21.25,5C21.9404,5,22.5,5.55965,22.5,6.25C22.5,6.94035,21.9404,7.5,21.25,7.5C21.25,7.5,16.25,7.5,16.25,7.5C16.25,7.5,16.25,13.75,16.25,13.75C16.25,13.75,18.125,13.75,18.125,13.75C19.6169,13.75,21.0476,14.3426,22.1025,15.3975C23.1574,16.4524,23.75,17.8831,23.75,19.375C23.75,20.8669,23.1574,22.2976,22.1025,23.3525C21.0476,24.4074,19.6169,25,18.125,25C18.125,25,16.25,25,16.25,25C16.25,25,16.25,28.75,16.25,28.75C16.25,29.4404,15.69035,30,15,30C14.30965,30,13.75,29.4404,13.75,28.75C13.75,28.75,13.75,25,13.75,25C13.75,25,7.5,25,7.5,25C6.8096440000000005,25,6.25,24.4404,6.25,23.75C6.25,23.0596,6.8096440000000005,22.5,7.5,22.5C7.5,22.5,13.75,22.5,13.75,22.5C13.75,22.5,13.75,16.25,13.75,16.25C13.75,16.25,11.875,16.25,11.875,16.25C10.38316,16.25,8.95241,15.6574,7.89752,14.6025C6.842633,13.5476,6.25,12.1168,6.25,10.625C6.25,9.13316,6.842633,7.70241,7.89752,6.64752C8.95241,5.59264,10.38316,5,11.875,5C11.875,5,13.75,5,13.75,5C13.75,5,13.75,1.25,13.75,1.25C13.75,0.559644,14.30965,0,15,0C15,0,15,0,15,0ZM13.75,7.5C13.75,7.5,11.875,7.5,11.875,7.5C11.046199999999999,7.5,10.251339999999999,7.82924,9.66529,8.41529C9.07924,9.00134,8.75,9.7962,8.75,10.625C8.75,11.4538,9.07924,12.2487,9.66529,12.8348C10.251339999999999,13.4207,11.046199999999999,13.75,11.875,13.75C11.875,13.75,13.75,13.75,13.75,13.75C13.75,13.75,13.75,7.5,13.75,7.5C13.75,7.5,13.75,7.5,13.75,7.5ZM16.25,16.25C16.25,16.25,16.25,22.5,16.25,22.5C16.25,22.5,18.125,22.5,18.125,22.5C18.9538,22.5,19.7486,22.1708,20.3348,21.5847C20.9207,20.9986,21.25,20.2038,21.25,19.375C21.25,18.5462,20.9207,17.7514,20.3348,17.1652C19.7486,16.5793,18.9538,16.25,18.125,16.25C18.125,16.25,16.25,16.25,16.25,16.25C16.25,16.25,16.25,16.25,16.25,16.25Z" fill-rule="evenodd" fill="#000000" fill-opacity="1"/></g></g></g></svg>