<svg xmlns="http://www.w3.org/2000/svg" xmlns:xlink="http://www.w3.org/1999/xlink" fill="none" version="1.1" width="25" height="60" viewBox="0 0 25 60"><g style="mix-blend-mode:passthrough"><path d="M6.6276,41.7604C6.6276,40.3672,5.5599,39.2865,4.23177,39.2865C2.83854,39.2865,1.75781,40.3672,1.75781,41.7604C1.75781,43.1667,2.83854,44.2474,4.23177,44.2474C5.5599,44.2474,6.6276,43.1667,6.6276,41.7604ZM14.9609,41.7604C14.9609,40.3672,13.8932,39.2865,12.5651,39.2865C11.1719,39.2865,10.0911,40.3672,10.0911,41.7604C10.0911,43.1667,11.1719,44.2474,12.5651,44.2474C13.8932,44.2474,14.9609,43.1667,14.9609,41.7604ZM23.2943,41.7604C23.2943,40.3672,22.2266,39.2865,20.8984,39.2865C19.5052,39.2865,18.4245,40.3672,18.4245,41.7604C18.4245,43.1667,19.5052,44.2474,20.8984,44.2474C22.2266,44.2474,23.2943,43.1667,23.2943,41.7604Z" fill="#FFFFFF" fill-opacity="1"/></g></svg>