<?xml version="1.0" encoding="UTF-8"?>
<svg width="200px" height="200px" viewBox="0 0 200 200" version="1.1" xmlns="http://www.w3.org/2000/svg" xmlns:xlink="http://www.w3.org/1999/xlink">
    <!-- Generator: Sketch 54 (76480) - https://sketchapp.com -->
    <title>facebook-2</title>
    <desc>Created with Sketch.</desc>
    <g id="Page-1" stroke="none" stroke-width="1" fill="none" fill-rule="evenodd">
        <g id="facebook-2" fill="#FFFFFF" fill-rule="nonzero">
            <path d="M128.123795,179.996688 L162.497399,179.996688 C167.522195,179.996688 171.259543,178.446751 174.846897,174.846897 C178.446751,171.259543 179.996688,167.522195 179.996688,162.497399 L179.996688,37.5024764 C179.996688,32.4776805 178.446751,28.7403324 174.846897,25.1529781 C171.66667,21.734346 167.164246,19.8568172 162.497399,20.0031873 L37.5024766,20.0031873 C32.4776807,20.0031873 28.7403326,21.5531244 25.1529783,25.1529781 C21.7343462,28.3332055 19.8568175,32.8356287 20.0031875,37.5024764 L20.0031875,162.497399 C20.0031875,167.522195 21.5531246,171.259543 25.1529783,174.846897 C28.7403326,178.446751 32.4776807,179.996688 37.5024766,179.996688 L105.287223,179.996688 L105.287223,125.311409 L103.412299,123.436485 L83.1256232,123.436485 L83.1256232,100.499917 L103.412299,100.499917 L105.287223,98.6249934 L105.287223,78.9507926 C105.287223,68.2137287 108.124608,60.0265613 113.774378,54.2642955 C119.424149,48.5145291 126.973842,45.6271465 136.523454,45.6271465 C143.99815,45.6271465 149.947909,45.8896357 154.372729,46.4271139 L154.372729,66.7512883 L142.710703,66.8512842 C137.210926,66.8512842 133.298585,68.088734 131.136173,70.7636252 C129.098756,73.3010221 128.123795,76.9258748 128.123795,81.6131844 L128.123795,98.6249934 L129.998719,100.499917 L153.247774,100.499917 L150.372891,123.436485 L129.998719,123.436485 L128.123795,125.311409 L128.123795,179.996688 Z M162.497399,0.00399980469 C172.470112,-0.144926394 182.060621,3.83603972 188.996322,11.0035529 C196.163835,17.9392537 200.144802,27.529763 199.995875,37.5024764 L199.995875,162.497399 C200.144802,172.470112 196.163835,182.060621 188.996322,188.996322 C182.060621,196.163835 172.470112,200.144801 162.497399,199.995875 L37.5024766,199.995875 C27.5297632,200.144801 17.9392539,196.163835 11.0035531,188.996322 C3.83603997,182.060621 -0.144926145,172.470112 0.004,162.497399 L0.004,37.5024764 C0.004,27.1778959 3.66635117,18.3407549 11.0035531,11.0035529 C17.9392539,3.83603977 27.5297632,-0.14492634 37.5024766,0.00399980469 L162.497399,0.00399980469 Z" id="Shape"></path>
        </g>
    </g>
</svg>