<svg xmlns="http://www.w3.org/2000/svg" xmlns:xlink="http://www.w3.org/1999/xlink" fill="none" version="1.1" width="15" height="15" viewBox="0 0 15 15"><clipPath id="master_svg0_149_09291"><rect x="0" y="0" width="15" height="15" rx="0"/></clipPath><g clip-path="url(#master_svg0_149_09291)" style="mix-blend-mode:passthrough"><g><g style="mix-blend-mode:passthrough"><path d="M2.424175,1.174175C2.775806,0.8225439999999999,3.25272,0.625,3.75,0.625C3.75,0.625,8.75,0.625,8.75,0.625C8.91575,0.625,9.07475,0.6908481,9.191939999999999,0.8080579999999999C9.191939999999999,0.8080579999999999,12.9419,4.558059999999999,12.9419,4.558059999999999C13.0591,4.67527,13.125,4.83424,13.125,5C13.125,5,13.125,12.5,13.125,12.5C13.125,12.9973,12.9274,13.4742,12.5758,13.8258C12.2242,14.1774,11.74731,14.375,11.25,14.375C11.25,14.375,3.75,14.375,3.75,14.375C3.25272,14.375,2.775806,14.1774,2.424175,13.8258C2.072544,13.4742,1.875,12.9973,1.875,12.5C1.875,12.5,1.875,2.5,1.875,2.5C1.875,2.00272,2.072544,1.525806,2.424175,1.174175C2.424175,1.174175,2.424175,1.174175,2.424175,1.174175ZM3.75,1.875C3.5842400000000003,1.875,3.4252700000000003,1.94085,3.3080600000000002,2.0580600000000002C3.19085,2.1752700000000003,3.125,2.3342400000000003,3.125,2.5C3.125,2.5,3.125,12.5,3.125,12.5C3.125,12.6657,3.19085,12.8247,3.3080600000000002,12.9419C3.4252700000000003,13.0591,3.5842400000000003,13.125,3.75,13.125C3.75,13.125,11.25,13.125,11.25,13.125C11.41575,13.125,11.57475,13.0591,11.69194,12.9419C11.80912,12.8247,11.875,12.6657,11.875,12.5C11.875,12.5,11.875,5.625,11.875,5.625C11.875,5.625,8.75,5.625,8.75,5.625C8.404810000000001,5.625,8.125,5.34517,8.125,5C8.125,5,8.125,1.875,8.125,1.875C8.125,1.875,3.75,1.875,3.75,1.875C3.75,1.875,3.75,1.875,3.75,1.875ZM9.375,2.75888C9.375,2.75888,10.99113,4.375,10.99113,4.375C10.99113,4.375,9.375,4.375,9.375,4.375C9.375,4.375,9.375,2.75888,9.375,2.75888C9.375,2.75888,9.375,2.75888,9.375,2.75888ZM4.375,5.625C4.375,5.27983,4.65482,5,5,5C5,5,6.25,5,6.25,5C6.59517,5,6.875,5.27983,6.875,5.625C6.875,5.97018,6.59517,6.25,6.25,6.25C6.25,6.25,5,6.25,5,6.25C4.65482,6.25,4.375,5.97018,4.375,5.625C4.375,5.625,4.375,5.625,4.375,5.625ZM4.375,8.125C4.375,7.77981,4.65482,7.5,5,7.5C5,7.5,10,7.5,10,7.5C10.34519,7.5,10.625,7.77981,10.625,8.125C10.625,8.470189999999999,10.34519,8.75,10,8.75C10,8.75,5,8.75,5,8.75C4.65482,8.75,4.375,8.470189999999999,4.375,8.125C4.375,8.125,4.375,8.125,4.375,8.125ZM4.375,10.625C4.375,10.27981,4.65482,10,5,10C5,10,10,10,10,10C10.34519,10,10.625,10.27981,10.625,10.625C10.625,10.9702,10.34519,11.25,10,11.25C10,11.25,5,11.25,5,11.25C4.65482,11.25,4.375,10.9702,4.375,10.625C4.375,10.625,4.375,10.625,4.375,10.625Z" fill-rule="evenodd" fill="#000000" fill-opacity="1"/></g></g></g></svg>