<?xml version="1.0" standalone="no"?><!DOCTYPE svg PUBLIC "-//W3C//DTD SVG 1.1//EN" "http://www.w3.org/Graphics/SVG/1.1/DTD/svg11.dtd"><svg class="icon" width="200px" height="200.00px" viewBox="0 0 1024 1024" version="1.1" xmlns="http://www.w3.org/2000/svg"><path d="M69.973333 213.128533h206.165334c17.749333 53.0432 64.853333 88.405333 117.896533 88.405334 53.0432 0 100.1472-35.362133 117.828267-88.405334h441.890133c17.6128 0 35.293867-17.681067 35.293867-35.293866 0-17.749333-17.681067-35.362133-35.293867-35.362134H511.863467C494.1824 89.429333 447.010133 54.0672 394.0352 54.0672c-53.0432 0-100.1472 41.233067-117.828267 88.405333H70.0416c-17.749333 0-35.4304 17.681067-35.4304 35.362134 0 17.6128 17.749333 35.293867 35.362133 35.293866z m324.061867-88.337066c29.422933 0 53.0432 23.552 53.0432 53.0432a52.770133 52.770133 0 0 1-53.0432 52.974933c-29.4912 0-53.0432-23.552-53.0432-47.104s23.552-58.914133 53.0432-58.914133z m559.7184 371.165866h-147.319467c-17.681067-53.0432-64.853333-88.405333-117.828266-88.405333-53.0432 0-100.1472 35.362133-117.828267 88.405333H69.973333c-17.681067 0-35.362133 17.681067-35.362133 35.362134s17.749333 35.362133 35.362133 35.362133h500.804267c17.681067 52.974933 64.853333 88.337067 117.828267 88.337067 53.0432 0 100.1472-35.362133 117.828266-88.337067h147.319467c17.6128 0 35.293867-17.749333 35.293867-35.362133 0-17.749333-17.681067-35.362133-35.293867-35.362134zM688.605867 584.2944a52.770133 52.770133 0 0 1-53.0432-52.974933c0-29.4912 23.552-53.0432 53.0432-53.0432 29.422933 0 53.0432 23.552 53.0432 53.0432a52.770133 52.770133 0 0 1-53.0432 52.974933z m265.147733 265.147733H511.863467c-17.681067-53.0432-64.853333-88.337067-117.828267-88.337066-53.0432 0-100.1472 41.233067-117.828267 88.337066H70.0416c-17.749333 0-35.4304 17.681067-35.4304 35.362134s17.749333 35.362133 35.362133 35.362133h206.165334c17.749333 52.974933 64.853333 88.337067 117.896533 88.337067 53.0432 0 100.1472-35.362133 117.828267-88.337067h441.890133c17.6128 0 35.293867-17.749333 35.293867-35.362133 0-17.681067-17.681067-35.362133-35.293867-35.362134z m-559.786667 88.405334a52.770133 52.770133 0 0 1-52.974933-53.0432c0-29.4912 23.552-53.0432 53.0432-53.0432 29.422933 0 53.0432 23.552 53.0432 53.0432a52.770133 52.770133 0 0 1-53.0432 53.0432z" fill="#1296db" /></svg>