<?xml version="1.0" encoding="UTF-8"?>
<svg width="1170px" height="509px" viewBox="0 0 1170 509" version="1.1" xmlns="http://www.w3.org/2000/svg" xmlns:xlink="http://www.w3.org/1999/xlink">
    <!-- Generator: Sketch 54 (76480) - https://sketchapp.com -->
    <title>Help + FontAwesomequestioncircle蒙版</title>
    <desc>Created with Sketch.</desc>
    <defs>
        <rect id="path-1" x="0" y="0" width="1170" height="509" rx="254.5"></rect>
    </defs>
    <g id="Page-1" stroke="none" stroke-width="1" fill="none" fill-rule="evenodd">
        <g id="Help-+-FontAwesomequestioncircle蒙版" transform="translate(0.000000, -0.000000)">
            <mask id="mask-2" fill="white">
                <use xlink:href="#path-1"></use>
            </mask>
            <use id="蒙版" fill="#365A7E" xlink:href="#path-1"></use>
            <text id="Help" mask="url(#mask-2)" font-family="Poppins-Medium, Poppins" font-size="160" font-weight="400" letter-spacing="6.16296005" fill="#FFFFFF">
                <tspan x="504" y="315">Help</tspan>
            </text>
            <g id="FontAwesomequestioncircle" mask="url(#mask-2)" fill="#FFFFFF" fill-rule="nonzero">
                <g transform="translate(158.000000, 135.000000)" id="形状">
                    <path d="M119,0 C53.2827298,0 0,53.3019234 0,119 C0,184.736464 53.2827298,238 119,238 C184.71727,238 238,184.736464 238,119 C238,53.3019234 184.71727,0 119,0 Z M119,214.967742 C65.9624677,214.967742 23.0322581,172.055286 23.0322581,119 C23.0322581,65.9802218 65.9643871,23.0322581 119,23.0322581 C172.017859,23.0322581 214.967742,65.9639073 214.967742,119 C214.967742,172.036573 172.055286,214.967742 119,214.967742 Z M170.459823,92.5129032 C170.459823,124.687048 135.709423,125.182242 135.709423,137.072165 L135.709423,140.112903 C135.709423,143.292794 133.13125,145.870968 129.951359,145.870968 L108.048161,145.870968 C104.86827,145.870968 102.290097,143.292794 102.290097,140.112903 L102.290097,135.95798 C102.290097,118.806145 115.293726,111.94973 125.120343,106.440222 C133.54679,101.71621 138.711294,98.5032097 138.711294,92.2470726 C138.711294,83.9717742 128.155323,78.4790605 119.621391,78.4790605 C108.494411,78.4790605 103.357738,83.74625 96.137125,92.8593468 C94.1904194,95.316121 90.6381734,95.7724476 88.1401331,93.8785242 L74.7891008,83.7548871 C72.3385645,81.8969516 71.789629,78.4449919 73.5204073,75.9032863 C84.8575565,59.2557621 99.2978226,49.9032258 121.780185,49.9032258 C145.326351,49.9032258 170.459823,68.2829677 170.459823,92.5129032 L170.459823,92.5129032 Z M139.153226,172.741935 C139.153226,183.85452 130.112585,192.895161 119,192.895161 C107.887415,192.895161 98.8467742,183.85452 98.8467742,172.741935 C98.8467742,161.629351 107.887415,152.58871 119,152.58871 C130.112585,152.58871 139.153226,161.629351 139.153226,172.741935 Z"></path>
                </g>
            </g>
        </g>
    </g>
</svg>