<?xml version="1.0" encoding="UTF-8"?>
<svg width="500px" height="500px" viewBox="0 0 500 500" version="1.1" xmlns="http://www.w3.org/2000/svg" xmlns:xlink="http://www.w3.org/1999/xlink">
    <!-- Generator: Sketch 54 (76480) - https://sketchapp.com -->
    <title>形状</title>
    <desc>Created with Sketch.</desc>
    <defs>
        <circle id="path-1" cx="250" cy="250" r="250"></circle>
    </defs>
    <g id="Page-1" stroke="none" stroke-width="1" fill="none" fill-rule="evenodd">
        <g id="形状">
            <g id="蒙版">
                <g id="free-Gift-mobile">
                    <g id="free-Gift-select-">
                        <mask id="mask-2" fill="white">
                            <use xlink:href="#path-1"></use>
                        </mask>
                        <use id="蒙版" fill="#365A7E" xlink:href="#path-1"></use>
                    </g>
                </g>
            </g>
            <path d="M249,131 C183.28273,131 130,184.301923 130,250 C130,315.736464 183.28273,369 249,369 C314.71727,369 368,315.736464 368,250 C368,184.301923 314.71727,131 249,131 Z M249,345.967742 C195.962468,345.967742 153.032258,303.055286 153.032258,250 C153.032258,196.980222 195.964387,154.032258 249,154.032258 C302.017859,154.032258 344.967742,196.963907 344.967742,250 C344.967742,303.036573 302.055286,345.967742 249,345.967742 Z M300.459823,223.512903 C300.459823,255.687048 265.709423,256.182242 265.709423,268.072165 L265.709423,271.112903 C265.709423,274.292794 263.13125,276.870968 259.951359,276.870968 L238.048161,276.870968 C234.86827,276.870968 232.290097,274.292794 232.290097,271.112903 L232.290097,266.95798 C232.290097,249.806145 245.293726,242.94973 255.120343,237.440222 C263.54679,232.71621 268.711294,229.50321 268.711294,223.247073 C268.711294,214.971774 258.155323,209.47906 249.621391,209.47906 C238.494411,209.47906 233.357738,214.74625 226.137125,223.859347 C224.190419,226.316121 220.638173,226.772448 218.140133,224.878524 L204.789101,214.754887 C202.338565,212.896952 201.789629,209.444992 203.520407,206.903286 C214.857556,190.255762 229.297823,180.903226 251.780185,180.903226 C275.326351,180.903226 300.459823,199.282968 300.459823,223.512903 L300.459823,223.512903 Z M269.153226,303.741935 C269.153226,314.85452 260.112585,323.895161 249,323.895161 C237.887415,323.895161 228.846774,314.85452 228.846774,303.741935 C228.846774,292.629351 237.887415,283.58871 249,283.58871 C260.112585,283.58871 269.153226,292.629351 269.153226,303.741935 Z" fill="#FFFFFF" fill-rule="nonzero"></path>
        </g>
    </g>
</svg>