<?xml version="1.0" encoding="UTF-8"?>
<svg width="200px" height="200px" viewBox="0 0 200 200" version="1.1" xmlns="http://www.w3.org/2000/svg" xmlns:xlink="http://www.w3.org/1999/xlink">
    <!-- Generator: Sketch 54 (76480) - https://sketchapp.com -->
    <title>ins</title>
    <desc>Created with Sketch.</desc>
    <g id="Page-1" stroke="none" stroke-width="1" fill="none" fill-rule="evenodd">
        <g id="ins" fill="#FFFFFF" fill-rule="nonzero">
            <path d="M199.488496,39.9460366 L199.488496,159.612331 C199.488496,181.650418 181.637741,199.505741 159.599883,199.505741 L39.9338163,199.505741 C17.9153734,199.505741 0.0648475446,181.650418 0.0648475446,159.612331 L0.0648475446,39.9460366 C0.0648475446,17.9275938 17.9151451,0.0476020089 39.9338163,0.0476020089 L159.600111,0.0476020089 C181.637741,0.0476020089 199.488496,17.9275937 199.488496,39.9460366 Z M179.553897,49.9134502 C179.553897,33.3920804 166.144246,20.0114382 149.627673,20.0114382 L49.9060266,20.0114379 C33.3796315,20.0114379 19.9891674,33.3920801 19.9891674,49.91345 L19.9891674,149.640121 C19.9891674,166.161491 33.3796315,179.547158 49.9060266,179.547158 L149.627672,179.547158 C166.144246,179.547158 179.553897,166.161491 179.553897,149.640121 L179.553897,49.9134502 Z" id="Shape"></path>
            <path d="M101.118906,48.8464599 C73.0997036,48.8464599 50.3856521,71.6418266 50.3856521,99.7613365 C50.3856521,127.880846 73.0997036,150.676213 101.118906,150.676213 C129.138109,150.676213 151.85216,127.880846 151.85216,99.7613365 C151.577219,71.7569151 129.023431,49.1223856 101.118906,48.8464599 Z M101.118906,133.670644 C82.7917237,133.724582 67.8701035,118.898112 67.7411182,100.505695 C67.612133,82.113279 82.3243304,67.0774977 100.650454,66.8725433 C118.976577,66.667589 134.018996,81.3706029 134.298454,99.7613365 C134.243114,118.145002 119.436739,133.049824 101.118906,133.161496 L101.118906,133.670644 Z M166.361871,46.8098647 C166.361871,53.38983 161.046783,58.7239458 154.490289,58.7239458 C147.933796,58.7239458 142.618708,53.38983 142.618708,46.8098647 C142.201092,42.2716415 144.377757,37.8869278 148.239076,35.4880948 C152.100394,33.0892619 156.981651,33.0892619 160.842969,35.4880948 C164.704288,37.8869278 166.880953,42.2716415 166.463337,46.8098647 L166.361871,46.8098647 Z" id="Shape"></path>
        </g>
    </g>
</svg>