<svg class="icon" viewBox="0 0 1024 1024" xmlns="http://www.w3.org/2000/svg" width="200" height="200"><path d="M968.843 908.501 726.699 666.357a382.293 382.293 0 0 0 83.968-239.69c0-212.075-171.915-384-384-384-212.075 0-384 171.925-384 384s171.925 384 384 384c90.666 0 173.994-31.414 239.69-83.979l242.144 242.144a42.667 42.667 0 0 0 60.342-60.33zM426.667 725.333C261.717 725.333 128 591.616 128 426.667S261.717 128 426.667 128c164.96 0 298.666 133.717 298.666 298.667S591.627 725.333 426.667 725.333z" fill="#fff"/></svg>