<?xml version="1.0" standalone="no"?><!DOCTYPE svg PUBLIC "-//W3C//DTD SVG 1.1//EN" "http://www.w3.org/Graphics/SVG/1.1/DTD/svg11.dtd"><svg class="icon" width="200px" height="200.00px" viewBox="0 0 1024 1024" version="1.1" xmlns="http://www.w3.org/2000/svg"><path d="M220.253091 725.457455V186.181818a46.545455 46.545455 0 0 1 93.090909 0v651.636364c0 41.472-50.129455 62.231273-79.453091 32.907636L106.728727 743.563636a46.545455 46.545455 0 0 1 65.815273-65.838545l47.709091 47.709091zM512 290.909091a46.545455 46.545455 0 1 1 0-93.090909h372.363636a46.545455 46.545455 0 1 1 0 93.090909H512z m0 256a46.545455 46.545455 0 1 1 0-93.090909h279.272727a46.545455 46.545455 0 1 1 0 93.090909H512zM512 814.545455a46.545455 46.545455 0 1 1 0-93.09091h372.363636a46.545455 46.545455 0 1 1 0 93.09091H512z" fill="#1296DB" /></svg>