<svg xmlns="http://www.w3.org/2000/svg" xmlns:xlink="http://www.w3.org/1999/xlink" fill="none" version="1.1" width="30" height="30" viewBox="0 0 30 30"><clipPath id="master_svg0_3132_4964"><rect x="0" y="0" width="30" height="30" rx="0"/></clipPath><g clip-path="url(#master_svg0_3132_4964)" style="mix-blend-mode:passthrough"><g><g style="mix-blend-mode:passthrough"><path d="M0,3.75C0,3.059644,0.559644,2.5,1.25,2.5C1.25,2.5,20,2.5,20,2.5C20.6904,2.5,21.25,3.059644,21.25,3.75C21.25,3.75,21.25,8.75,21.25,8.75C21.25,8.75,25,8.75,25,8.75C25.3315,8.75,25.6495,8.8817,25.8839,9.116109999999999C25.8839,9.116109999999999,29.6339,12.8661,29.6339,12.8661C29.8682,13.1005,30,13.4185,30,13.75C30,13.75,30,20,30,20C30,20.6904,29.4404,21.25,28.75,21.25C28.75,21.25,27.079,21.25,27.079,21.25C27.349,21.8183,27.5,22.454,27.5,23.125C27.5,25.5413,25.5413,27.5,23.125,27.5C20.7087,27.5,18.75,25.5413,18.75,23.125C18.75,22.454,18.901,21.8183,19.171,21.25C19.171,21.25,10.829,21.25,10.829,21.25C11.0989,21.8183,11.25,22.454,11.25,23.125C11.25,25.5413,9.29125,27.5,6.875,27.5C4.45875,27.5,2.5,25.5413,2.5,23.125C2.5,22.454,2.65106,21.8183,2.92102,21.25C2.92102,21.25,1.25,21.25,1.25,21.25C0.559644,21.25,0,20.6904,0,20C0,20,0,3.75,0,3.75C0,3.75,0,3.75,0,3.75ZM18.75,18.75C18.75,18.75,18.75,5,18.75,5C18.75,5,2.5,5,2.5,5C2.5,5,2.5,18.75,2.5,18.75C2.5,18.75,18.75,18.75,18.75,18.75C18.75,18.75,18.75,18.75,18.75,18.75ZM21.25,18.75C21.25,18.75,21.25,11.25,21.25,11.25C21.25,11.25,24.4823,11.25,24.4823,11.25C24.4823,11.25,27.5,14.2678,27.5,14.2678C27.5,14.2678,27.5,18.75,27.5,18.75C27.5,18.75,21.25,18.75,21.25,18.75C21.25,18.75,21.25,18.75,21.25,18.75ZM6.875,21.25C5.83946,21.25,5,22.0895,5,23.125C5,24.1605,5.83946,25,6.875,25C7.91054,25,8.75,24.1605,8.75,23.125C8.75,22.0895,7.91054,21.25,6.875,21.25C6.875,21.25,6.875,21.25,6.875,21.25ZM23.125,21.25C22.0895,21.25,21.25,22.0895,21.25,23.125C21.25,24.1605,22.0895,25,23.125,25C24.1605,25,25,24.1605,25,23.125C25,22.0895,24.1605,21.25,23.125,21.25C23.125,21.25,23.125,21.25,23.125,21.25Z" fill-rule="evenodd" fill="#000000" fill-opacity="1"/></g></g></g></svg>