<?xml version="1.0" encoding="UTF-8"?>
<svg width="200px" height="200px" viewBox="0 0 200 200" version="1.1" xmlns="http://www.w3.org/2000/svg" xmlns:xlink="http://www.w3.org/1999/xlink">
    <!-- Generator: Sketch 54 (76480) - https://sketchapp.com -->
    <title>twitter-2</title>
    <desc>Created with Sketch.</desc>
    <g id="Page-1" stroke="none" stroke-width="1" fill="none" fill-rule="evenodd">
        <g id="twitter-2" fill="#FFFFFF" fill-rule="nonzero">
            <path d="M145.401052,65.6214288 C150.114428,65.0517578 154.827804,63.7178051 159.531586,61.633504 C156.200816,66.7607705 152.140255,71.0993147 147.34876,74.7121795 L147.34876,77.9796783 C147.34876,84.7040335 146.413623,91.4334138 144.505203,98.1575406 C142.615969,104.862937 139.703887,111.348597 135.779462,117.547137 C131.86463,123.745677 127.17067,129.199123 121.717224,133.931914 C116.283423,138.684121 109.739288,142.477434 102.123423,145.306374 C94.508015,148.149931 86.3083172,149.576621 77.5437453,149.576621 C62.7608538,149.576621 50.2082217,146.158367 39.8657482,139.346529 C41.8232781,139.628851 43.7515708,139.760648 45.6992788,139.760648 C56.2948379,139.760648 66.4614306,135.796707 76.1414962,127.845526 C70.8826616,127.733602 66.1496422,126.068217 61.9524877,122.781531 C57.7651554,119.519057 51.1330804,114.128883 49.5750511,109.108744 C55.0673275,110.42351 61.2706643,110.754485 64.3775864,109.946119 C59.4983801,108.957989 39.6224846,95.7667042 39.9338163,85.1423647 C43.4395538,87.1142848 51.6102426,90.7712342 55.7882098,88.054219 C42.4754074,76.1148853 44.072496,59.530244 49.9060266,49.9134498 C53.2948147,57.2757723 55.2621665,63.7372201 70.5318136,73.2226748 C78.8877482,78.3937973 89.7071556,79.2700033 99.7668493,79.8396741 C99.3965862,78.2183734 99.7668493,72.1319857 99.7668493,69.8722605 C99.7668493,62.9482692 103.350477,59.3548199 105.307778,57.2321449 C109.953314,52.1923618 115.874329,49.8501783 122.700786,49.8501783 C129.712489,49.8501783 135.720987,52.4993536 140.687677,57.8015873 C146.141122,56.6627022 151.322067,54.6220288 156.200816,51.6909875 C154.360692,57.7577317 150.767014,62.4030395 145.401052,65.6214288 Z M199.488496,39.9460366 L199.488496,159.612331 C199.488496,181.650418 181.637741,199.505741 159.599883,199.505741 L39.9338163,199.505741 C17.9153734,199.505741 0.0648475446,181.650418 0.0648475446,159.612331 L0.0648475446,39.9460366 C0.0648475446,17.9275938 17.9151451,0.0476020089 39.9338163,0.0476020089 L159.600111,0.0476020089 C181.637741,0.0476020089 199.488496,17.9275937 199.488496,39.9460366 Z M179.553897,49.9134502 C179.553897,33.3920804 166.144246,20.0114382 149.627673,20.0114382 L49.9060266,20.0114379 C33.3796315,20.0114379 19.9891674,33.3920801 19.9891674,49.91345 L19.9891674,149.640121 C19.9891674,166.161491 33.3796315,179.547158 49.9060266,179.547158 L149.627672,179.547158 C166.144246,179.547158 179.553897,166.161491 179.553897,149.640121 L179.553897,49.9134502 Z" id="Shape"></path>
        </g>
    </g>
</svg>