<svg xmlns="http://www.w3.org/2000/svg" xmlns:xlink="http://www.w3.org/1999/xlink" fill="none" version="1.1" width="20" height="20" viewBox="0 0 20 20"><defs><clipPath id="master_svg0_4536_6891"><rect x="0" y="0" width="20" height="20" rx="0"/></clipPath></defs><g style="mix-blend-mode:passthrough" clip-path="url(#master_svg0_4536_6891)"><g style="mix-blend-mode:passthrough"><path d="M9.9996778125,2.5000440234375C5.8575378125,2.5000440234375,2.4996778125,5.8579040234375,2.4996778125,10.0000440234375C2.4996778125,14.1421740234375,5.8575378125,17.5000740234375,9.9996778125,17.5000740234375C14.1418078125,17.5000740234375,17.4997078125,14.1421740234375,17.4997078125,10.0000440234375C17.4997078125,5.8579040234375,14.1418078125,2.5000440234375,9.9996778125,2.5000440234375C9.9996778125,2.5000440234375,9.9996778125,2.5000440234375,9.9996778125,2.5000440234375ZM0.8330078125,10.0000440234375C0.8330078125,4.9374340234375,4.9370678125,0.8333740234375,9.9996778125,0.8333740234375C15.0622078125,0.8333740234375,19.1663078125,4.9374340234375,19.1663078125,10.0000440234375C19.1663078125,15.0625740234375,15.0622078125,19.1666740234375,9.9996778125,19.1666740234375C4.9370678125,19.1666740234375,0.8330078125,15.0625740234375,0.8330078125,10.0000440234375C0.8330078125,10.0000440234375,0.8330078125,10.0000440234375,0.8330078125,10.0000440234375ZM9.9996778125,5.8333740234375C10.4599278125,5.8333740234375,10.8330078125,6.2064740234375,10.8330078125,6.6667040234375C10.8330078125,6.6667040234375,10.8330078125,10.0000440234375,10.8330078125,10.0000440234375C10.8330078125,10.4602940234375,10.4599278125,10.8333740234375,9.9996778125,10.8333740234375C9.5394278125,10.8333740234375,9.1663378125,10.4602940234375,9.1663378125,10.0000440234375C9.1663378125,10.0000440234375,9.1663378125,6.6667040234375,9.1663378125,6.6667040234375C9.1663378125,6.2064740234375,9.5394278125,5.8333740234375,9.9996778125,5.8333740234375C9.9996778125,5.8333740234375,9.9996778125,5.8333740234375,9.9996778125,5.8333740234375ZM9.1663378125,13.3333740234375C9.1663378125,12.8730740234375,9.5394278125,12.5000740234375,9.9996778125,12.5000740234375C9.9996778125,12.5000740234375,10.0080078125,12.5000740234375,10.0080078125,12.5000740234375C10.4682578125,12.5000740234375,10.8413078125,12.8730740234375,10.8413078125,13.3333740234375C10.8413078125,13.7935740234375,10.4682578125,14.1666740234375,10.0080078125,14.1666740234375C10.0080078125,14.1666740234375,9.9996778125,14.1666740234375,9.9996778125,14.1666740234375C9.5394278125,14.1666740234375,9.1663378125,13.7935740234375,9.1663378125,13.3333740234375C9.1663378125,13.3333740234375,9.1663378125,13.3333740234375,9.1663378125,13.3333740234375Z" fill-rule="evenodd" fill="#000000" fill-opacity="1"/></g></g></svg>