<?xml version="1.0" encoding="UTF-8"?>
<svg width="200px" height="200px" viewBox="0 0 200 200" version="1.1" xmlns="http://www.w3.org/2000/svg" xmlns:xlink="http://www.w3.org/1999/xlink">
    <!-- Generator: Sketch 54 (76480) - https://sketchapp.com -->
    <title>youtube</title>
    <desc>Created with Sketch.</desc>
    <g id="Page-1" stroke="none" stroke-width="1" fill="none" fill-rule="evenodd">
        <g id="youtube" fill="#FFFFFF" fill-rule="nonzero">
            <path d="M199.488496,39.9460366 L199.488496,159.612331 C199.488496,181.650418 181.637741,199.505741 159.599883,199.505741 L39.9338163,199.505741 C17.9153734,199.505741 0.0648475446,181.650418 0.0648475446,159.612331 L0.0648475446,39.9460366 C0.0648475446,17.9275938 17.9151451,0.0476020089 39.9338163,0.0476020089 L159.600111,0.0476020089 C181.637741,0.0476020089 199.488496,17.9275937 199.488496,39.9460366 Z M179.553897,49.9134502 C179.553897,33.3920804 166.144246,20.0114382 149.627673,20.0114382 L49.9060266,20.0114379 C33.3796315,20.0114379 19.9891674,33.3920801 19.9891674,49.91345 L19.9891674,149.640121 C19.9891674,166.161491 33.3796315,179.547158 49.9060266,179.547158 L149.627672,179.547158 C166.144246,179.547158 179.553897,166.161491 179.553897,149.640121 L179.553897,49.9134502 Z" id="Shape"></path>
            <g id="youtube-2" transform="translate(45.000000, 32.000000)">
                <path d="M70.6973774,93.021125 L70.6973774,108.799625 C70.6973774,112.14125 69.7242083,113.807875 67.7778702,113.807875 C66.6285239,113.807875 65.5043459,113.255125 64.405336,112.158 L64.405336,89.654375 C65.5043459,88.55725 66.6285239,88.0045 67.7778702,88.0045 C69.7242083,88.0045 70.6973774,89.6795 70.6973774,93.021125 L70.6973774,93.021125 Z M96.016552,93.0965 L96.016552,96.538625 L89.279873,96.538625 L89.279873,93.0965 C89.279873,89.704625 90.4040511,88.012875 92.6524072,88.012875 C94.892374,88.012875 96.016552,89.704625 96.016552,93.0965 Z M23.6580757,76.79875 L31.6699418,76.79875 L31.6699418,69.76375 L8.30549467,69.76375 L8.30549467,76.79875 L16.1747411,76.79875 L16.1747411,119.34375 L23.6664651,119.34375 L23.6580757,76.79875 L23.6580757,76.79875 Z M45.2355831,119.34375 L51.905147,119.34375 L51.905147,82.401625 L45.2355831,82.401625 L45.2355831,110.66725 C43.7338825,112.761 42.3160759,113.807875 40.9653843,113.807875 C40.0677197,113.807875 39.5391883,113.288625 39.3965687,112.24175 C39.3159332,111.370429 39.2907145,110.494882 39.3210642,109.620375 L39.3210642,82.401625 L32.6431109,82.401625 L32.6431109,111.63875 C32.6431109,114.08425 32.8444562,115.901625 33.2387575,117.09925 C33.8344041,118.94175 35.2857683,119.863 37.5844607,119.863 C39.9838259,119.863 42.5258106,118.33875 45.2271937,115.298625 L45.2355831,119.34375 L45.2355831,119.34375 Z M77.3669413,108.272 L77.3669413,93.540375 C77.3669413,89.89725 77.1404278,87.435 76.6874008,86.136875 C75.8400726,83.348 74.0615222,81.949375 71.3685285,81.949375 C68.8768801,81.949375 66.5530194,83.29775 64.405336,85.986125 L64.405336,69.76375 L57.7357721,69.76375 L57.7357721,119.335375 L64.405336,119.335375 L64.405336,115.7425 C66.6536921,118.481125 68.9775527,119.854625 71.3685285,119.854625 C74.0699116,119.854625 75.8400726,118.481125 76.6874008,115.7425 C77.1404278,114.4025 77.3669413,111.90675 77.3669413,108.272 L77.3669413,108.272 Z M102.686116,107.526625 L102.686116,106.555125 L95.865543,106.555125 C95.865543,109.101125 95.8152067,110.617 95.714534,111.1195 C95.3621797,112.91175 94.3638425,113.807875 92.7195223,113.807875 C90.4208299,113.807875 89.2714836,112.091 89.2714836,108.648875 L89.2714836,102.1415 L102.677727,102.1415 L102.677727,94.444875 C102.677727,90.508625 102.006575,87.61925 100.655884,85.768375 C98.7095458,83.222375 96.0668884,81.95775 92.7195223,81.95775 C89.32182,81.95775 86.6539944,83.23075 84.7076563,85.768375 C83.3066284,87.610875 82.6103091,90.50025 82.6103091,94.444875 L82.6103091,107.375875 C82.6103091,111.312125 83.3317965,114.2015 84.7831608,116.052375 C86.7294989,118.598375 89.4224926,119.863 92.8705313,119.863 C96.469579,119.863 99.1625727,118.53975 100.957902,115.901625 C101.80051,114.702682 102.338873,113.317409 102.526718,111.864875 C102.62739,111.412625 102.677727,109.972125 102.677727,107.526625 L102.686116,107.526625 L102.686116,107.526625 Z M57.1485149,39.262 L57.1485149,23.558875 C57.1485149,20.11675 56.0746731,18.399875 53.9269896,18.399875 C51.7793062,18.399875 50.7054644,20.11675 50.7054644,23.558875 L50.7054644,39.262 C50.7054644,42.754375 51.7793062,44.496375 53.9269896,44.496375 C56.0746731,44.496375 57.1485149,42.746 57.1485149,39.262 L57.1485149,39.262 Z M111,95.416375 C111,107.08275 110.354017,115.801125 109.053662,121.58825 C108.40534,124.444725 106.887318,127.030883 104.707959,128.99175 C102.606054,130.94269 99.9213475,132.151824 97.0652256,132.433875 C87.8788451,133.48075 74.0195752,134 55.4958053,134 C36.9720354,134 23.1127655,133.48075 13.926385,132.433875 C11.0619792,132.145745 8.36845227,130.937941 6.25009448,128.99175 C4.05705972,127.048726 2.54817923,124.453087 1.94633815,121.58825 C0.645982919,116.002125 0,107.28375 0,95.416375 C0,83.75 0.645982919,75.031625 1.94633815,69.2445 C2.6426574,66.304875 4.08563223,63.83425 6.28365203,61.841 C8.48167183,59.84775 11.0488247,58.67525 13.9935001,58.331875 C23.1295443,57.33525 36.963646,56.83275 55.4874159,56.83275 C74.0111859,56.83275 87.8704557,57.33525 97.0568362,58.331875 C99.9511753,58.683625 102.509939,59.84775 104.733127,61.841 C106.956315,63.83425 108.3909,66.304875 109.036883,69.2445 C110.345628,74.830625 110.991611,83.549 111,95.416375 Z M36.2421586,0.008375 L43.8848915,0.008375 L34.8243519,29.840125 L34.8243519,50.09925 L27.3326279,50.09925 L27.3326279,29.840125 C26.6279193,26.14675 25.10944,20.862125 22.7604112,13.98625 C20.9147457,8.852375 19.2872043,4.1875 17.8861764,0 L25.822538,0 L31.1414103,19.6645 L36.2421586,0.008375 Z M63.9606984,24.898875 L63.9606984,37.980625 C63.9606984,42.017375 63.2643791,44.957 61.8633512,46.807875 C60.0176857,49.353875 57.366639,50.6185 53.9269896,50.6185 C50.5796236,50.6185 47.9621344,49.3455 46.0577432,46.807875 C44.6567153,44.915125 43.960396,41.9755 43.960396,37.980625 L43.960396,24.898875 C43.960396,20.912375 44.6567153,17.997875 46.0577432,16.155375 C47.953745,13.609375 50.5796236,12.34475 53.9269896,12.34475 C57.3750283,12.34475 60.0176857,13.61775 61.8633512,16.155375 C63.2643791,17.997875 63.9606984,20.912375 63.9606984,24.898875 Z M89.0533595,12.788625 L89.0533595,50.09925 L82.241176,50.09925 L82.241176,45.9955 C79.5985186,49.085875 77.0229763,50.63525 74.5313279,50.63525 C72.2326355,50.63525 70.7644925,49.714 70.1101202,47.8715 C69.6990401,46.6655 69.5060842,44.797875 69.5060842,42.251875 L69.5060842,12.797 L76.3266571,12.797 L76.3266571,40.2335 C76.3266571,41.883375 76.3518253,42.754375 76.4021616,42.854875 C76.5531706,43.952 77.0733127,44.50475 77.9709773,44.50475 C79.3216688,44.50475 80.7394755,43.43275 82.241176,41.28875 L82.241176,12.797 L89.0533595,12.788625 Z" id="Shape"></path>
            </g>
        </g>
    </g>
</svg>